<svg width="40" height="40" viewBox="0 0 40 40" fill="none" xmlns="http://www.w3.org/2000/svg">
<path d="M20 0.833374C9.42004 0.833374 0.833374 9.42004 0.833374 20C0.833374 30.58 9.42004 39.1667 20 39.1667C30.58 39.1667 39.1667 30.58 39.1667 20C39.1667 9.42004 30.58 0.833374 20 0.833374ZM20 35.3334C11.5475 35.3334 4.66671 28.4525 4.66671 20C4.66671 11.5475 11.5475 4.66671 20 4.66671C28.4525 4.66671 35.3334 11.5475 35.3334 20C35.3334 28.4525 28.4525 35.3334 20 35.3334ZM28.7975 11.5284L16.1667 24.1592L11.2025 19.2142L8.50004 21.9167L16.1667 29.5834L31.5 14.25L28.7975 11.5284Z" fill="#3CDEB4"/>
</svg>
