<svg width="31" height="36" viewBox="0 0 31 36" fill="none" xmlns="http://www.w3.org/2000/svg">
<path d="M20.6275 21.6624C20.0413 21.0887 19.247 20.7665 18.4188 20.7665C17.5907 20.7665 16.7964 21.0887 16.2102 21.6624L10.7537 27.0172L9.22968 25.5196L14.6862 20.1677C14.9766 19.8834 15.2069 19.5457 15.3641 19.174C15.5212 18.8023 15.6021 18.4038 15.6021 18.0014C15.6021 17.599 15.5212 17.2006 15.3641 16.8289C15.2069 16.4572 14.9766 16.1195 14.6862 15.8352L9.22676 10.4804L10.7507 8.98569L16.2102 14.3404C16.5001 14.6252 16.8444 14.8511 17.2234 15.0053C17.6023 15.1594 18.0086 15.2387 18.4188 15.2387C18.8291 15.2387 19.2354 15.1594 19.6143 15.0053C19.9933 14.8511 20.3376 14.6252 20.6275 14.3404L30.7085 4.45276C28.0551 2.17587 24.7891 0.696812 21.3012 0.19248C17.8133 -0.311851 14.2511 0.179888 11.0407 1.60889C7.83018 3.03789 5.10733 5.34367 3.19772 8.25046C1.28811 11.1573 0.272583 14.542 0.272583 18C0.272583 21.458 1.28811 24.8427 3.19772 27.7495C5.10733 30.6563 7.83018 32.9621 11.0407 34.3911C14.2511 35.8201 17.8133 36.3118 21.3012 35.8075C24.7891 35.3032 28.0551 33.8241 30.7085 31.5472L20.6275 21.6624Z" fill="url(#paint0_linear_14_1223)"/>
<defs>
<linearGradient id="paint0_linear_14_1223" x1="27.4182" y1="-3.00953" x2="-0.808047" y2="71.0947" gradientUnits="userSpaceOnUse">
<stop stop-color="#3CDEB4"/>
<stop offset="1" stop-color="#2A8F6A"/>
</linearGradient>
</defs>
</svg>
