<svg width="62" height="62" viewBox="0 0 62 62" fill="none" xmlns="http://www.w3.org/2000/svg">
<circle cx="31" cy="31" r="30" fill="#D8F8F0" stroke="#3CDEB4" stroke-width="2"/>
<path d="M29.874 29.8018H31.0342C31.6025 29.8018 32.0713 29.708 32.4404 29.5205C32.8154 29.3271 33.0938 29.0664 33.2754 28.7383C33.4629 28.4043 33.5566 28.0293 33.5566 27.6133C33.5566 27.1211 33.4746 26.708 33.3105 26.374C33.1465 26.04 32.9004 25.7881 32.5723 25.6182C32.2441 25.4482 31.8281 25.3633 31.3242 25.3633C30.8672 25.3633 30.4629 25.4541 30.1113 25.6357C29.7656 25.8115 29.4932 26.0635 29.2939 26.3916C29.1006 26.7197 29.0039 27.1064 29.0039 27.5518H27.3779C27.3779 26.9014 27.542 26.3096 27.8701 25.7764C28.1982 25.2432 28.6582 24.8184 29.25 24.502C29.8477 24.1855 30.5391 24.0273 31.3242 24.0273C32.0977 24.0273 32.7744 24.165 33.3545 24.4404C33.9346 24.71 34.3857 25.1143 34.708 25.6533C35.0303 26.1865 35.1914 26.8516 35.1914 27.6484C35.1914 27.9707 35.1152 28.3164 34.9629 28.6855C34.8164 29.0488 34.585 29.3887 34.2686 29.7051C33.958 30.0215 33.5537 30.2822 33.0557 30.4873C32.5576 30.6865 31.96 30.7861 31.2627 30.7861H29.874V29.8018ZM29.874 31.1377V30.1621H31.2627C32.0771 30.1621 32.751 30.2588 33.2842 30.4521C33.8174 30.6455 34.2363 30.9033 34.541 31.2256C34.8516 31.5479 35.0684 31.9023 35.1914 32.2891C35.3203 32.6699 35.3848 33.0508 35.3848 33.4316C35.3848 34.0293 35.2822 34.5596 35.0771 35.0225C34.8779 35.4854 34.5938 35.8779 34.2246 36.2002C33.8613 36.5225 33.4336 36.7656 32.9414 36.9297C32.4492 37.0938 31.9131 37.1758 31.333 37.1758C30.7764 37.1758 30.252 37.0967 29.7598 36.9385C29.2734 36.7803 28.8428 36.5518 28.4678 36.2529C28.0928 35.9482 27.7998 35.5762 27.5889 35.1367C27.3779 34.6914 27.2725 34.1846 27.2725 33.6162H28.8984C28.8984 34.0615 28.9951 34.4512 29.1885 34.7852C29.3877 35.1191 29.6689 35.3799 30.0322 35.5674C30.4014 35.749 30.835 35.8398 31.333 35.8398C31.8311 35.8398 32.2588 35.7549 32.6162 35.585C32.9795 35.4092 33.2578 35.1455 33.4512 34.7939C33.6504 34.4424 33.75 34 33.75 33.4668C33.75 32.9336 33.6387 32.4971 33.416 32.1572C33.1934 31.8115 32.877 31.5566 32.4668 31.3926C32.0625 31.2227 31.585 31.1377 31.0342 31.1377H29.874Z" fill="#292D38"/>
</svg>
