<svg width="62" height="62" viewBox="0 0 62 62" fill="none" xmlns="http://www.w3.org/2000/svg">
<circle cx="31" cy="31" r="30" fill="#D8F8F0" stroke="#3CDEB4" stroke-width="2"/>
<path d="M35.8857 35.6641V37H27.5098V35.8311L31.7021 31.1641C32.2178 30.5898 32.6162 30.1035 32.8975 29.7051C33.1846 29.3008 33.3838 28.9404 33.4951 28.624C33.6123 28.3018 33.6709 27.9736 33.6709 27.6396C33.6709 27.2178 33.583 26.8369 33.4072 26.4971C33.2373 26.1514 32.9854 25.876 32.6514 25.6709C32.3174 25.4658 31.9131 25.3633 31.4385 25.3633C30.8701 25.3633 30.3955 25.4746 30.0146 25.6973C29.6396 25.9141 29.3584 26.2188 29.1709 26.6113C28.9834 27.0039 28.8896 27.4551 28.8896 27.9648H27.2637C27.2637 27.2441 27.4219 26.585 27.7383 25.9873C28.0547 25.3896 28.5234 24.915 29.1445 24.5635C29.7656 24.2061 30.5303 24.0273 31.4385 24.0273C32.2471 24.0273 32.9385 24.1709 33.5127 24.458C34.0869 24.7393 34.5264 25.1377 34.8311 25.6533C35.1416 26.1631 35.2969 26.7607 35.2969 27.4463C35.2969 27.8213 35.2324 28.2021 35.1035 28.5889C34.9805 28.9697 34.8076 29.3506 34.585 29.7314C34.3682 30.1123 34.1133 30.4873 33.8203 30.8564C33.5332 31.2256 33.2256 31.5889 32.8975 31.9463L29.4697 35.6641H35.8857Z" fill="#292D38"/>
</svg>
