<svg width="148" height="60" viewBox="0 0 148 60" fill="none" xmlns="http://www.w3.org/2000/svg">
<g clip-path="url(#clip0_257_1388)">
<path d="M57.8531 39.6085C56.6342 39.6187 55.4226 39.4234 54.2714 39.0311C53.1911 38.6768 52.2033 38.0949 51.3774 37.3265C50.5515 36.5581 49.9075 35.6218 49.4909 34.5835C49.0133 33.3926 48.7798 32.1213 48.8038 30.8421V30.5796C48.7833 29.299 49.0235 28.0271 49.5104 26.8383C49.9527 25.7631 50.6162 24.7884 51.4596 23.975C52.2937 23.2033 53.2782 22.6044 54.3542 22.2141C55.4842 21.8019 56.6814 21.5949 57.8872 21.6033C58.8724 21.6026 59.854 21.718 60.811 21.9469C61.7344 22.165 62.6073 22.552 63.384 23.0874C64.1489 23.6384 64.781 24.347 65.2358 25.1633C65.7658 26.1305 66.0766 27.1983 66.1471 28.2938H61.5371C61.4558 27.4502 61.0603 26.6654 60.4261 26.0891C59.7266 25.5736 58.8636 25.3167 57.9895 25.3637C57.4087 25.3417 56.8305 25.4502 56.2992 25.681C55.7678 25.9118 55.2975 26.2587 54.9244 26.6951C54.1642 27.5827 53.7841 28.8553 53.7841 30.5128V30.7753C53.7841 32.506 54.1593 33.8088 54.9098 34.6837C55.3006 35.1273 55.7905 35.4768 56.3415 35.7052C56.8925 35.9336 57.4897 36.0347 58.087 36.0008C59.0056 36.0236 59.904 35.7354 60.6307 35.1848C61.0003 34.8774 61.3003 34.498 61.5117 34.0707C61.7232 33.6434 61.8414 33.1777 61.8588 32.7032H66.2738C66.2194 33.6788 65.9781 34.6355 65.5623 35.5236C65.1713 36.3553 64.5972 37.0919 63.8811 37.6806C63.1218 38.3205 62.2407 38.8071 61.2886 39.1122C60.1799 39.4651 59.0186 39.6328 57.8531 39.6085Z" fill="#1E1E1E"/>
<path d="M72.828 30.4413L67.2094 22.0042H72.7939L76.093 27.201L79.3238 22.028H84.3723L78.7488 30.0643L84.9425 39.222H79.3238L75.6203 33.4239L71.8193 39.222H66.8049L72.828 30.4413Z" fill="#1E1E1E"/>
<path d="M92.8174 39.4702C91.4042 39.4702 90.3321 39.0853 89.6012 38.3154C88.8265 37.4198 88.4354 36.2656 88.5096 35.0942V23.517H85.9171V22.0042H88.5096V18.0815H90.2931V22.0042H94.9031V23.517H90.2931V34.9367C90.2931 35.9866 90.5287 36.7517 90.9997 37.2321C91.2498 37.4766 91.5495 37.667 91.8793 37.7911C92.2092 37.9152 92.5619 37.9703 92.9148 37.9527C93.3216 37.9564 93.7279 37.9229 94.1282 37.8525C94.471 37.7911 94.8083 37.7034 95.137 37.59V39.098C94.8209 39.2155 94.4948 39.305 94.1623 39.3652C93.7186 39.4429 93.2681 39.4781 92.8174 39.4702Z" fill="#1E1E1E"/>
<path d="M105.673 39.5037C104.527 39.5135 103.391 39.2942 102.334 38.8594C101.319 38.4437 100.403 37.8262 99.6445 37.046C98.8668 36.246 98.2545 35.3061 97.8415 34.2782C97.3929 33.1616 97.1695 31.9705 97.1836 30.7707V30.5034C97.1678 29.2862 97.398 28.0779 97.861 26.9482C98.2776 25.9199 98.8931 24.9801 99.6738 24.1804C100.44 23.41 101.356 22.7981 102.369 22.3813C103.422 21.9491 104.555 21.7316 105.697 21.7418C106.839 21.7315 107.972 21.944 109.03 22.367C110.044 22.7718 110.962 23.3778 111.725 24.147C112.508 24.9382 113.126 25.872 113.543 26.8957C113.995 28.0346 114.218 29.2482 114.2 30.47V30.7373C114.215 31.9542 113.992 33.1625 113.543 34.2973C113.132 35.3295 112.513 36.2707 111.725 37.0651C110.936 37.8459 109.995 38.464 108.958 38.8829C107.921 39.3017 106.809 39.5128 105.687 39.5037H105.673ZM105.702 37.9861C106.604 37.9935 107.498 37.8198 108.328 37.4755C109.125 37.1488 109.843 36.6609 110.434 36.0439C111.046 35.3877 111.52 34.6188 111.827 33.7819C112.171 32.8177 112.336 31.8012 112.315 30.7802V30.5178C112.337 29.4796 112.172 28.4456 111.827 27.4636C111.523 26.6195 111.049 25.8438 110.434 25.1825C109.845 24.5632 109.127 24.0749 108.328 23.7509C107.493 23.4246 106.601 23.2624 105.702 23.2737C104.801 23.2668 103.909 23.4406 103.08 23.7843C102.281 24.1144 101.559 24.6016 100.96 25.2159C100.335 25.8734 99.8535 26.6498 99.5471 27.497C99.2042 28.4679 99.0392 29.4906 99.0598 30.5178V30.7802C99.041 31.7948 99.206 32.8046 99.5471 33.7628C99.8509 34.6069 100.325 35.3826 100.941 36.0439C101.532 36.6609 102.249 37.1488 103.046 37.4755C103.886 37.8211 104.79 37.9949 105.702 37.9861Z" fill="#1E1E1E"/>
<path d="M122.831 39.4702C121.417 39.4702 120.347 39.0853 119.619 38.3154C118.841 37.4215 118.448 36.2665 118.523 35.0942V23.517H115.935V22.0042H118.523V18.0815H120.306V22.0042H124.916V23.517H120.306V34.9367C120.306 35.9866 120.545 36.7501 121.013 37.2321C121.264 37.4769 121.564 37.6676 121.895 37.7917C122.226 37.9158 122.579 37.9706 122.933 37.9527C123.34 37.9562 123.746 37.9227 124.146 37.8525C124.489 37.7899 124.826 37.7022 125.155 37.59V39.098C124.839 39.2153 124.513 39.3047 124.18 39.3652C123.735 39.4437 123.283 39.4788 122.831 39.4702Z" fill="#1E1E1E"/>
<path d="M133.522 39.5035C132.708 39.5118 131.898 39.4057 131.115 39.1886C130.433 39.0039 129.794 38.6911 129.234 38.2676C128.702 37.8644 128.279 37.3402 128.001 36.7405C127.7 36.0687 127.552 35.3408 127.567 34.6073C127.536 33.7332 127.77 32.8696 128.24 32.1258C128.704 31.4564 129.332 30.9117 130.067 30.5415C130.893 30.1161 131.786 29.8274 132.708 29.6873C133.738 29.5226 134.779 29.4412 135.822 29.4439H139.487V27.8691C139.487 26.2434 139.134 25.0679 138.429 24.3425C137.723 23.6171 136.592 23.2544 135.047 23.2544C133.872 23.2079 132.709 23.5125 131.714 24.1277C131.261 24.4548 130.884 24.8724 130.607 25.3528C130.331 25.8332 130.162 26.3655 130.111 26.9147H128.362C128.423 26.0881 128.682 25.2872 129.117 24.5763C129.511 23.9449 130.032 23.3979 130.647 22.9681C131.272 22.5295 131.974 22.206 132.718 22.0137C133.504 21.8156 134.313 21.7162 135.125 21.7178C135.972 21.7086 136.816 21.8195 137.63 22.0471C138.357 22.2463 139.026 22.6128 139.579 23.1161C140.144 23.6492 140.576 24.3023 140.841 25.0249C141.166 25.9238 141.319 26.8732 141.295 27.8261V39.2363H139.511V36.6116C138.926 37.4669 138.143 38.1749 137.226 38.678C136.088 39.2716 134.81 39.5567 133.522 39.5035ZM133.659 38.0719C134.428 38.0771 135.194 37.9661 135.929 37.7426C136.596 37.5429 137.223 37.2312 137.781 36.8216C138.292 36.4488 138.715 35.9738 139.024 35.4281C139.327 34.8907 139.483 34.2858 139.477 33.672V30.7705H135.876C135.015 30.766 134.156 30.8202 133.303 30.9328C132.584 31.0195 131.885 31.2194 131.232 31.5245C130.672 31.7889 130.196 32.1961 129.853 32.7033C129.503 33.2791 129.333 33.9428 129.365 34.6121C129.335 35.0916 129.414 35.5717 129.597 36.0175C129.78 36.4633 130.062 36.8636 130.423 37.1891C131.125 37.7872 132.206 38.0862 133.668 38.0862L133.659 38.0719Z" fill="#1E1E1E"/>
<path d="M146.192 13.7676H148.01V39.2364H146.192V13.7676Z" fill="#1E1E1E"/>
<path d="M33.9848 36.1058C33.0063 35.1497 31.6806 34.6127 30.2983 34.6127C28.9161 34.6127 27.5903 35.1497 26.6118 36.1058L17.5041 45.0297L14.9603 42.5339L24.0681 33.6148C24.5527 33.141 24.9372 32.5782 25.1995 31.9588C25.4618 31.3393 25.5968 30.6753 25.5968 30.0047C25.5968 29.334 25.4618 28.67 25.1995 28.0506C24.9372 27.4311 24.5527 26.8684 24.0681 26.3945L14.9554 17.4707L17.4992 14.9796L26.6118 23.9035C27.0957 24.3781 27.6703 24.7546 28.3029 25.0114C28.9354 25.2683 29.6135 25.4005 30.2983 25.4005C30.9831 25.4005 31.6612 25.2683 32.2937 25.0114C32.9263 24.7546 33.5009 24.3781 33.9848 23.9035L50.8115 7.42532C46.3825 3.6308 40.9312 1.1659 35.1094 0.325414C29.2876 -0.515072 23.3418 0.304428 17.9831 2.68591C12.6244 5.06739 8.07954 8.91005 4.89213 13.7543C1.70473 18.5986 0.00967407 24.2395 0.00967407 30.0023C0.00967407 35.7651 1.70473 41.4059 4.89213 46.2502C8.07954 51.0945 12.6244 54.9372 17.9831 57.3186C23.3418 59.7001 29.2876 60.5196 35.1094 59.6791C40.9312 58.8386 46.3825 56.3737 50.8115 52.5792L33.9848 36.1058Z" fill="url(#paint0_linear_257_1388)"/>
<path d="M2.81229e-06 30.0022C-0.0105075 37.2717 2.68526 44.2957 7.5825 49.7588L14.9603 42.5338L24.0681 33.6147C24.5527 33.1409 24.9372 32.5782 25.1995 31.9587C25.4618 31.3393 25.5968 30.6752 25.5968 30.0046C25.5968 29.334 25.4618 28.67 25.1995 28.0505C24.9372 27.431 24.5527 26.8683 24.0681 26.3945L7.57763 10.2456C2.68293 15.7099 -0.0109602 22.7335 2.81229e-06 30.0022Z" fill="url(#paint1_linear_257_1388)"/>
<path d="M14.9555 17.4707L17.4992 14.9796L24.2776 21.6177C26.6674 18.6111 28.2752 15.0809 28.9628 11.3309C29.6504 7.58093 29.3972 3.72347 28.2248 0.0905762C20.5404 0.68491 13.3672 4.09407 8.13584 9.63813C2.90445 15.1822 -0.00063369 22.4537 1.03683e-07 30.0023L1.03683e-07 30.0882C1.75848 30.4812 3.5567 30.6781 5.36038 30.6752C11.5035 30.6868 17.4148 28.3795 21.8655 24.2328L14.9555 17.4707Z" fill="url(#paint2_linear_257_1388)"/>
</g>
<defs>
<linearGradient id="paint0_linear_257_1388" x1="45.3195" y1="-5.01085" x2="-1.66573" y2="118.535" gradientUnits="userSpaceOnUse">
<stop stop-color="#3CDEB4"/>
<stop offset="1" stop-color="#2A8F6A"/>
</linearGradient>
<linearGradient id="paint1_linear_257_1388" x1="19.2486" y1="41.2788" x2="-69.5899" y2="-6.54518" gradientUnits="userSpaceOnUse">
<stop stop-color="#3CDEB4"/>
<stop offset="1" stop-color="#2A8F6A"/>
</linearGradient>
<linearGradient id="paint2_linear_257_1388" x1="-1.01054e-06" y1="30.5415" x2="32.364" y2="-6.63805" gradientUnits="userSpaceOnUse">
<stop stop-color="#3CDEB4"/>
<stop offset="1" stop-color="#2A8F6A"/>
</linearGradient>
<clipPath id="clip0_257_1388">
<rect width="148" height="60" fill="white"/>
</clipPath>
</defs>
</svg>
