<svg width="1920" height="490" viewBox="0 0 1920 490" fill="none" xmlns="http://www.w3.org/2000/svg">
<g clip-path="url(#clip0_14_1013)">
<rect width="1920" height="490" fill="#292D38"/>
<path d="M410.535 21.7417L260.673 171.525L260.673 171.525C256.435 175.768 251.401 179.134 245.861 181.43C240.32 183.727 234.38 184.909 228.382 184.909C222.383 184.909 216.444 183.727 210.903 181.43C205.362 179.134 200.329 175.768 196.091 171.525L196.09 171.525L114.521 89.9983L113.814 89.2917L113.107 89.9983L90.3375 112.756L89.6298 113.463L90.3375 114.17L171.907 195.697L171.907 195.697C176.152 199.933 179.52 204.964 181.817 210.502C184.115 216.04 185.298 221.976 185.298 227.971C185.298 233.966 184.115 239.902 181.817 245.44C179.52 250.978 176.152 256.008 171.907 260.244L171.907 260.245L90.3811 341.727L89.6741 342.434L90.3804 343.141L113.15 365.943L113.857 366.651L114.565 365.943L196.089 284.418C204.66 275.87 216.274 271.069 228.382 271.069C240.49 271.069 252.103 275.87 260.674 284.418L410.535 434.156C371.18 468.297 322.87 490.482 271.301 498.08C219.379 505.731 166.351 498.271 118.559 476.594C70.7663 454.917 30.2329 419.939 1.8059 375.844C-26.6211 331.75 -41.7386 280.404 -41.7386 227.949C-41.7386 175.493 -26.6211 124.148 1.8059 80.0536C30.2329 35.9589 70.7663 0.981384 118.559 -20.6959C166.351 -42.3732 219.379 -49.8327 271.301 -42.1822C322.87 -34.5837 371.181 -12.3994 410.535 21.7417Z" stroke="white" stroke-width="2"/>
</g>
<defs>
<clipPath id="clip0_14_1013">
<rect width="1920" height="490" fill="white"/>
</clipPath>
</defs>
</svg>
