<svg width="148" height="60" viewBox="0 0 148 60" fill="none" xmlns="http://www.w3.org/2000/svg">
<g clip-path="url(#clip0_276_855)">
<path d="M57.8532 39.609C56.6343 39.6192 55.4227 39.4239 54.2715 39.0316C53.1913 38.6773 52.2034 38.0954 51.3775 37.327C50.5516 36.5586 49.9077 35.6223 49.491 34.584C49.0134 33.3931 48.7799 32.1218 48.8039 30.8426V30.5801C48.7834 29.2994 49.0236 28.0276 49.5105 26.8388C49.9529 25.7635 50.6164 24.7889 51.4597 23.9755C52.2938 23.2038 53.2783 22.6049 54.3544 22.2146C55.4843 21.8024 56.6815 21.5954 57.8873 21.6038C58.8725 21.6031 59.8541 21.7185 60.8112 21.9474C61.7345 22.1655 62.6075 22.5525 63.3842 23.0879C64.149 23.6389 64.7811 24.3475 65.2359 25.1638C65.7659 26.131 66.0767 27.1988 66.1472 28.2943H61.5373C61.4559 27.4507 61.0604 26.6659 60.4262 26.0896C59.7267 25.5741 58.8638 25.3172 57.9897 25.3642C57.4088 25.3422 56.8306 25.4507 56.2993 25.6815C55.768 25.9123 55.2977 26.2592 54.9245 26.6956C54.1643 27.5832 53.7842 28.8558 53.7842 30.5133V30.7758C53.7842 32.5065 54.1594 33.8093 54.9099 34.6842C55.3008 35.1277 55.7906 35.4773 56.3416 35.7057C56.8926 35.9341 57.4898 36.0352 58.0871 36.0013C59.0057 36.0241 59.9042 35.7359 60.6309 35.1852C61.0004 34.8779 61.3004 34.4984 61.5119 34.0712C61.7233 33.6439 61.8415 33.1782 61.8589 32.7037H66.2739C66.2196 33.6792 65.9782 34.636 65.5624 35.5241C65.1714 36.3557 64.5973 37.0924 63.8812 37.6811C63.1219 38.321 62.2408 38.8075 61.2887 39.1127C60.1801 39.4655 59.0187 39.6333 57.8532 39.609Z" fill="white"/>
<path d="M72.8283 30.4415L67.2096 22.0044H72.7942L76.0932 27.2012L79.3241 22.0283H84.3726L78.7491 30.0645L84.9427 39.2222H79.3241L75.6206 33.4241L71.8196 39.2222H66.8052L72.8283 30.4415Z" fill="white"/>
<path d="M92.8173 39.4702C91.4041 39.4702 90.332 39.0853 89.601 38.3154C88.8264 37.4198 88.4352 36.2656 88.5095 35.0942V23.517H85.917V22.0042H88.5095V18.0815H90.293V22.0042H94.9029V23.517H90.293V34.9367C90.293 35.9866 90.5285 36.7517 90.9996 37.2321C91.2497 37.4766 91.5493 37.667 91.8792 37.7911C92.2091 37.9152 92.5618 37.9703 92.9147 37.9527C93.3215 37.9564 93.7277 37.9229 94.1281 37.8525C94.4709 37.7911 94.8082 37.7034 95.1368 37.59V39.098C94.8208 39.2155 94.4946 39.305 94.1622 39.3652C93.7184 39.4429 93.268 39.4781 92.8173 39.4702Z" fill="white"/>
<path d="M105.673 39.5039C104.527 39.5137 103.391 39.2945 102.335 38.8597C101.32 38.444 100.404 37.8265 99.6448 37.0463C98.8671 36.2462 98.2548 35.3063 97.8417 34.2784C97.3931 33.1619 97.1697 31.9707 97.1839 30.7709V30.5037C97.168 29.2865 97.3982 28.0782 97.8612 26.9485C98.2779 25.9201 98.8934 24.9803 99.674 24.1806C100.44 23.4102 101.357 22.7984 102.369 22.3815C103.422 21.9494 104.555 21.7318 105.697 21.7421C106.84 21.7317 107.973 21.9442 109.03 22.3672C110.044 22.772 110.962 23.3781 111.725 24.1472C112.509 24.9384 113.126 25.8723 113.543 26.896C113.995 28.0349 114.218 29.2485 114.201 30.4703V30.7375C114.215 31.9544 113.992 33.1628 113.543 34.2975C113.132 35.3298 112.514 36.2709 111.725 37.0654C110.936 37.8462 109.995 38.4643 108.958 38.8831C107.921 39.3019 106.809 39.513 105.687 39.5039H105.673ZM105.702 37.9864C106.604 37.9938 107.498 37.82 108.329 37.4758C109.125 37.149 109.843 36.6612 110.434 36.0441C111.047 35.388 111.52 34.6191 111.827 33.7821C112.171 32.8179 112.336 31.8014 112.315 30.7805V30.518C112.337 29.4798 112.172 28.4459 111.827 27.4638C111.524 26.6197 111.05 25.844 110.434 25.1828C109.845 24.5634 109.127 24.0752 108.329 23.7511C107.494 23.4248 106.601 23.2627 105.702 23.2739C104.802 23.267 103.909 23.4408 103.08 23.7845C102.281 24.1146 101.56 24.6019 100.961 25.2162C100.335 25.8736 99.8538 26.6501 99.5473 27.4972C99.2044 28.4682 99.0394 29.4908 99.06 30.518V30.7805C99.0413 31.7951 99.2063 32.8049 99.5473 33.7631C99.8512 34.6072 100.325 35.3829 100.941 36.0441C101.532 36.6612 102.249 37.149 103.046 37.4758C103.887 37.8214 104.79 37.9951 105.702 37.9864Z" fill="white"/>
<path d="M122.83 39.4702C121.417 39.4702 120.347 39.0853 119.619 38.3154C118.841 37.4215 118.448 36.2665 118.523 35.0942V23.517H115.935V22.0042H118.523V18.0815H120.306V22.0042H124.916V23.517H120.306V34.9367C120.306 35.9866 120.545 36.7501 121.013 37.2321C121.264 37.4769 121.564 37.6676 121.895 37.7917C122.225 37.9158 122.579 37.9706 122.933 37.9527C123.34 37.9562 123.746 37.9227 124.146 37.8525C124.489 37.7899 124.826 37.7022 125.155 37.59V39.098C124.839 39.2153 124.513 39.3047 124.18 39.3652C123.735 39.4437 123.283 39.4788 122.83 39.4702Z" fill="white"/>
<path d="M133.522 39.504C132.708 39.5123 131.898 39.4062 131.115 39.1891C130.433 39.0044 129.794 38.6916 129.234 38.2681C128.702 37.8649 128.279 37.3407 128.001 36.741C127.7 36.0692 127.552 35.3413 127.567 34.6078C127.536 33.7337 127.77 32.8701 128.24 32.1263C128.704 31.4569 129.332 30.9121 130.067 30.542C130.893 30.1166 131.786 29.8279 132.708 29.6878C133.738 29.5231 134.779 29.4417 135.822 29.4444H139.487V27.8696C139.487 26.2439 139.134 25.0683 138.429 24.343C137.723 23.6176 136.592 23.2549 135.047 23.2549C133.872 23.2084 132.709 23.513 131.714 24.1282C131.261 24.4553 130.884 24.8729 130.607 25.3533C130.331 25.8337 130.162 26.366 130.111 26.9152H128.362C128.423 26.0886 128.682 25.2877 129.117 24.5768C129.511 23.9454 130.032 23.3984 130.647 22.9686C131.272 22.53 131.974 22.2065 132.718 22.0142C133.504 21.8161 134.313 21.7167 135.125 21.7183C135.972 21.7091 136.816 21.82 137.63 22.0476C138.358 22.2468 139.026 22.6133 139.579 23.1165C140.144 23.6497 140.576 24.3028 140.841 25.0254C141.166 25.9243 141.319 26.8736 141.295 27.8266V39.2368H139.511V36.6121C138.926 37.4674 138.143 38.1754 137.226 38.6785C136.088 39.2721 134.81 39.5571 133.522 39.504ZM133.659 38.0724C134.428 38.0776 135.194 37.9666 135.929 37.7431C136.596 37.5433 137.223 37.2317 137.781 36.8221C138.292 36.4493 138.715 35.9743 139.024 35.4286C139.327 34.8911 139.483 34.2863 139.477 33.6725V30.771H135.876C135.015 30.7665 134.156 30.8207 133.303 30.9333C132.584 31.02 131.885 31.2198 131.232 31.525C130.672 31.7894 130.196 32.1966 129.853 32.7037C129.503 33.2796 129.334 33.9433 129.365 34.6126C129.335 35.0921 129.414 35.5722 129.597 36.018C129.78 36.4638 130.062 36.864 130.423 37.1896C131.125 37.7877 132.206 38.0867 133.668 38.0867L133.659 38.0724Z" fill="white"/>
<path d="M146.192 13.7676H148.01V39.2364H146.192V13.7676Z" fill="white"/>
<path d="M33.9849 36.1061C33.0064 35.15 31.6806 34.613 30.2984 34.613C28.9162 34.613 27.5904 35.15 26.6119 36.1061L17.5042 45.03L14.9604 42.5341L24.0682 33.615C24.5528 33.1412 24.9372 32.5785 25.1996 31.959C25.4619 31.3395 25.5969 30.6755 25.5969 30.0049C25.5969 29.3343 25.4619 28.6703 25.1996 28.0508C24.9372 27.4313 24.5528 26.8686 24.0682 26.3948L14.9555 17.4709L17.4993 14.9798L26.6119 23.9037C27.0958 24.3783 27.6704 24.7548 28.303 25.0117C28.9355 25.2686 29.6136 25.4008 30.2984 25.4008C30.9832 25.4008 31.6613 25.2686 32.2938 25.0117C32.9264 24.7548 33.501 24.3783 33.9849 23.9037L50.8116 7.42556C46.3826 3.63104 40.9313 1.16614 35.1095 0.325658C29.2877 -0.514828 23.3419 0.304672 17.9832 2.68615C12.6245 5.06764 8.07963 8.91029 4.89223 13.7546C1.70482 18.5989 0.00976563 24.2397 0.00976562 30.0025C0.00976563 35.7653 1.70482 41.4062 4.89223 46.2505C8.07963 51.0947 12.6245 54.9374 17.9832 57.3189C23.3419 59.7004 29.2877 60.5199 35.1095 59.6794C40.9313 58.8389 46.3826 56.374 50.8116 52.5795L33.9849 36.1061Z" fill="url(#paint0_linear_276_855)"/>
<path d="M3.33299e-05 30.0027C-0.010477 37.2722 2.68529 44.2962 7.58253 49.7593L14.9604 42.5343L24.0681 33.6152C24.5527 33.1414 24.9372 32.5787 25.1995 31.9592C25.4618 31.3397 25.5968 30.6757 25.5968 30.0051C25.5968 29.3345 25.4618 28.6705 25.1995 28.051C24.9372 27.4315 24.5527 26.8688 24.0681 26.395L7.57766 10.2461C2.68296 15.7104 -0.0109297 22.734 3.33299e-05 30.0027Z" fill="url(#paint1_linear_276_855)"/>
<path d="M14.9555 17.4709L17.4992 14.9799L24.2776 21.6179C26.6674 18.6114 28.2752 15.0812 28.9628 11.3312C29.6504 7.58117 29.3972 3.72371 28.2248 0.0908203C20.5404 0.685154 13.3672 4.09432 8.13584 9.63837C2.90445 15.1824 -0.00063369 22.4539 1.03683e-07 30.0025L1.03683e-07 30.0884C1.75848 30.4814 3.5567 30.6783 5.36038 30.6754C11.5035 30.6871 17.4148 28.3797 21.8655 24.233L14.9555 17.4709Z" fill="url(#paint2_linear_276_855)"/>
</g>
<defs>
<linearGradient id="paint0_linear_276_855" x1="45.3196" y1="-5.0106" x2="-1.66564" y2="118.536" gradientUnits="userSpaceOnUse">
<stop stop-color="#3CDEB4"/>
<stop offset="1" stop-color="#2A8F6A"/>
</linearGradient>
<linearGradient id="paint1_linear_276_855" x1="19.2487" y1="41.2793" x2="-69.5899" y2="-6.54469" gradientUnits="userSpaceOnUse">
<stop stop-color="#3CDEB4"/>
<stop offset="1" stop-color="#2A8F6A"/>
</linearGradient>
<linearGradient id="paint2_linear_276_855" x1="-1.01054e-06" y1="30.5418" x2="32.364" y2="-6.63781" gradientUnits="userSpaceOnUse">
<stop stop-color="#3CDEB4"/>
<stop offset="1" stop-color="#2A8F6A"/>
</linearGradient>
<clipPath id="clip0_276_855">
<rect width="148" height="60" fill="white"/>
</clipPath>
</defs>
</svg>
